<?xml version="1.0" standalone="no"?>
<!DOCTYPE svg PUBLIC "-//W3C//DTD SVG 20010904//EN"
 "http://www.w3.org/TR/2001/REC-SVG-20010904/DTD/svg10.dtd">
<svg version="1.0" xmlns="http://www.w3.org/2000/svg"
 width="1024.000000pt" height="1024.000000pt" viewBox="0 0 1024.000000 1024.000000"
 preserveAspectRatio="xMidYMid meet">
<metadata>
Created by potrace 1.16, written by Peter Selinger 2001-2019
</metadata>
<g transform="translate(0.000000,1024.000000) scale(0.100000,-0.100000)"
fill="#000000" stroke="none">
<path d="M5885 9620 c-49 -4 -109 -13 -132 -19 -24 -6 -62 -16 -85 -21 -62
-16 -195 -58 -215 -69 -10 -5 -61 -30 -113 -55 -146 -69 -254 -146 -364 -258
l-99 -101 -61 7 c-61 6 -96 10 -171 21 -78 11 -241 13 -320 4 -112 -13 -267
-39 -285 -49 -8 -4 -44 -14 -80 -20 -36 -7 -78 -18 -95 -25 -16 -7 -59 -25
-95 -40 -107 -45 -262 -125 -313 -161 -26 -19 -52 -34 -57 -34 -5 0 -27 -15
-47 -32 -21 -18 -54 -44 -73 -57 -19 -13 -54 -46 -78 -72 -24 -27 -52 -49 -62
-49 -9 0 -35 -21 -56 -47 -21 -27 -54 -64 -74 -84 -42 -44 -143 -178 -206
-274 -74 -113 -176 -356 -211 -502 -4 -18 -12 -23 -35 -23 -16 0 -37 -4 -46
-9 -9 -5 -39 -12 -67 -15 -106 -14 -172 -27 -210 -41 -22 -8 -46 -14 -53 -15
-12 0 -154 -54 -242 -92 -66 -28 -120 -57 -165 -89 -22 -16 -68 -48 -102 -72
-112 -77 -169 -124 -249 -207 -43 -46 -90 -94 -104 -109 -36 -37 -170 -218
-170 -230 0 -5 -21 -40 -46 -78 -25 -37 -63 -111 -85 -163 -22 -52 -55 -129
-74 -170 -19 -41 -42 -106 -50 -145 -56 -245 -67 -304 -76 -445 -10 -135 -7
-328 6 -440 3 -19 5 -42 6 -50 1 -17 54 -224 71 -280 5 -19 21 -57 33 -85 34
-73 40 -96 22 -89 -32 12 -227 -132 -322 -237 -93 -103 -143 -169 -217 -283
-24 -37 -118 -246 -118 -262 0 -10 -10 -44 -21 -74 -53 -136 -60 -191 -64
-455 -3 -212 0 -264 15 -340 10 -49 21 -103 24 -120 16 -87 42 -176 66 -230
54 -120 106 -226 126 -252 13 -17 24 -36 24 -41 0 -48 366 -452 409 -452 6 0
18 -8 28 -18 30 -30 153 -107 248 -155 80 -41 333 -134 389 -142 11 -2 39 -9
61 -14 67 -18 371 -31 470 -21 50 5 93 10 97 10 7 0 38 -58 38 -72 0 -16 56
-90 112 -149 83 -88 234 -199 349 -256 127 -63 241 -113 283 -124 17 -4 49
-13 71 -19 35 -10 101 -26 250 -60 44 -10 348 -31 490 -33 106 -1 295 10 380
23 33 5 81 12 106 15 75 8 348 74 429 103 30 10 78 27 105 37 28 9 54 21 60
26 5 5 16 9 26 9 9 0 36 10 60 23 24 13 60 29 79 37 84 32 140 61 195 99 32
23 64 41 72 41 12 0 78 -94 123 -175 19 -35 111 -242 132 -300 36 -96 82 -233
108 -320 12 -38 25 -79 31 -90 5 -11 20 -65 33 -121 39 -164 83 -234 181 -288
17 -9 49 -28 72 -41 123 -73 381 -120 623 -113 117 3 140 6 175 25 22 12 82
36 134 53 122 40 283 119 346 170 131 106 190 183 230 300 23 68 25 83 20 217
-3 80 -7 148 -10 152 -2 5 -9 51 -15 102 -5 52 -14 103 -19 114 -4 11 -16 58
-25 105 -10 47 -24 112 -32 145 -8 33 -17 74 -20 90 -3 17 -9 37 -14 45 -4 8
-11 38 -15 65 -4 28 -10 55 -15 60 -4 6 -10 30 -14 55 -4 25 -13 65 -20 90
-22 72 -66 266 -66 293 0 17 20 44 66 88 118 114 129 124 150 149 11 14 56 60
100 102 43 43 88 88 100 100 11 13 38 39 60 59 147 134 304 338 304 395 0 24
14 32 25 15 3 -5 30 -13 61 -17 43 -5 70 -2 122 15 146 48 403 153 433 178 8
7 21 13 29 13 7 0 36 13 64 29 28 16 85 46 126 68 154 82 188 102 295 173 152
100 197 133 300 221 85 72 286 273 330 329 108 138 149 198 195 291 18 35 38
71 44 79 7 8 18 31 26 50 7 19 18 49 25 65 25 57 93 284 93 305 0 8 4 42 11
74 18 99 11 440 -13 541 -2 11 -9 40 -15 65 -13 49 -13 52 -31 123 -7 26 -16
50 -21 53 -5 3 -9 14 -9 24 0 11 -7 36 -16 57 -79 181 -125 273 -171 341 -24
35 -43 65 -43 68 0 3 -19 30 -42 61 -24 30 -48 64 -54 73 -13 23 -248 255
-300 296 -21 17 -55 39 -74 49 -59 31 -61 36 -54 127 4 46 10 88 14 93 5 6 8
21 8 35 0 14 6 68 12 120 15 124 4 279 -34 485 -2 11 -7 38 -11 60 -4 22 -15
62 -24 90 -10 27 -26 75 -35 105 -10 30 -24 69 -31 85 -33 71 -76 161 -84 175
-6 8 -24 44 -41 80 -51 107 -182 285 -295 400 -120 121 -197 188 -264 229 -34
21 -72 48 -84 59 -43 40 -209 125 -330 168 -40 14 -108 39 -153 55 -150 53
-503 94 -597 68 -26 -7 -34 -2 -100 67 -124 130 -292 262 -383 300 -20 8 -53
26 -73 39 -20 13 -56 31 -81 40 -25 10 -59 24 -77 31 -18 8 -63 22 -100 30
-37 9 -77 20 -88 24 -19 8 -62 18 -115 27 -14 2 -38 6 -55 9 -55 9 -339 12
-430 4z m226 -350 c30 -6 69 -13 88 -15 19 -3 62 -13 95 -24 34 -10 95 -26
136 -36 41 -9 95 -27 120 -39 282 -140 288 -143 345 -194 11 -10 37 -31 58
-46 20 -16 37 -31 37 -35 0 -3 -16 -17 -36 -30 -37 -26 -74 -86 -74 -121 0
-12 11 -31 24 -43 24 -21 34 -22 263 -24 131 -1 249 -4 263 -6 14 -2 54 -7 90
-12 114 -13 296 -61 395 -104 140 -61 313 -165 384 -231 19 -17 50 -42 70 -55
20 -13 47 -38 61 -54 14 -17 36 -41 50 -54 45 -41 75 -74 131 -148 56 -74 76
-105 130 -207 16 -30 38 -65 49 -79 11 -14 20 -32 20 -40 0 -9 11 -36 24 -62
64 -123 126 -332 146 -492 5 -46 15 -111 20 -144 11 -68 13 -216 4 -264 -6
-26 -20 -41 -78 -78 -39 -25 -83 -54 -99 -64 -27 -19 -195 -103 -253 -126 -79
-32 -191 -56 -309 -68 -71 -8 -154 -19 -184 -24 -29 -6 -68 -11 -86 -11 -85 0
-205 -69 -205 -118 0 -18 48 -75 91 -108 19 -14 101 -40 154 -49 21 -4 101 -6
177 -6 177 1 382 36 465 80 10 5 58 24 106 42 48 17 118 50 155 72 102 60 132
77 137 77 3 0 32 -27 66 -60 33 -33 65 -60 70 -60 5 0 9 -5 9 -11 0 -6 14 -22
30 -36 73 -61 236 -257 280 -338 12 -22 28 -47 36 -55 35 -40 133 -274 180
-430 26 -88 28 -108 29 -260 0 -123 -5 -188 -19 -255 -19 -90 -60 -213 -90
-270 -9 -16 -16 -33 -16 -38 0 -4 -21 -44 -47 -88 -27 -44 -59 -99 -72 -122
-13 -23 -27 -44 -31 -47 -4 -3 -23 -29 -44 -58 -50 -72 -56 -78 -181 -206 -60
-62 -135 -130 -165 -153 -30 -22 -64 -50 -75 -63 -29 -32 -156 -126 -255 -189
-47 -30 -96 -62 -110 -71 -14 -9 -51 -29 -83 -44 -31 -16 -60 -32 -63 -37 -2
-5 -24 -18 -47 -29 -23 -11 -69 -36 -102 -55 -33 -19 -65 -35 -72 -35 -7 0
-34 -14 -60 -30 -26 -17 -51 -30 -55 -30 -4 0 -8 26 -8 58 0 31 -5 100 -11
152 -6 52 -13 118 -15 145 -6 54 -38 202 -60 275 -7 25 -34 115 -60 200 -26
87 -65 192 -90 240 -24 47 -62 122 -84 168 -76 160 -253 372 -345 413 -79 36
-159 20 -233 -46 -37 -33 -52 -56 -61 -89 -22 -88 -8 -168 41 -238 13 -18 67
-80 122 -138 59 -64 118 -139 148 -190 28 -47 54 -87 58 -90 4 -3 18 -25 30
-50 12 -25 26 -52 31 -60 37 -63 99 -201 144 -320 7 -19 25 -64 39 -100 14
-36 28 -81 32 -100 3 -19 10 -41 15 -50 7 -13 27 -93 44 -176 6 -31 -5 -45
-142 -176 -10 -9 -35 -34 -56 -55 -36 -36 -146 -140 -182 -173 -53 -49 -408
-416 -450 -465 -27 -33 -57 -67 -65 -75 -32 -34 -67 -86 -123 -181 -51 -89
-57 -104 -51 -137 10 -54 92 -380 98 -390 3 -5 9 -36 15 -70 5 -34 16 -76 24
-94 35 -78 133 -562 143 -700 4 -52 4 -112 0 -131 -6 -33 -13 -40 -69 -66 -34
-16 -73 -32 -87 -35 -14 -4 -49 -14 -79 -22 -93 -25 -235 -34 -376 -23 -71 5
-162 12 -202 15 l-72 6 -16 56 c-8 31 -22 80 -30 108 -8 28 -15 59 -15 70 0
10 -11 53 -24 94 -14 41 -44 136 -67 210 -23 74 -53 155 -67 180 -14 25 -46
86 -71 135 -130 260 -326 485 -510 584 -83 44 -213 17 -314 -66 -16 -13 -35
-23 -42 -23 -7 0 -26 -11 -42 -24 -15 -13 -45 -29 -66 -35 -21 -7 -50 -24 -66
-37 -16 -13 -48 -31 -72 -39 -24 -9 -50 -21 -59 -29 -8 -7 -35 -18 -60 -25
-25 -6 -61 -18 -80 -26 -19 -7 -89 -30 -155 -50 -66 -20 -147 -45 -180 -55
-102 -33 -302 -52 -585 -57 -247 -4 -277 -3 -432 21 -125 19 -203 37 -305 72
-205 69 -264 92 -297 118 -17 13 -46 31 -65 41 -19 9 -39 21 -45 26 -136 108
-228 207 -255 276 l-13 31 -96 6 c-262 16 -414 38 -518 76 -54 20 -304 141
-388 188 -26 16 -53 35 -60 43 -6 8 -29 27 -50 42 -126 85 -326 296 -390 412
-9 17 -24 42 -34 56 -50 74 -62 95 -62 107 0 6 -4 12 -10 12 -5 0 -10 7 -10
15 0 8 -9 34 -19 57 -27 62 -57 145 -74 208 -9 30 -24 84 -34 120 -24 89 -24
403 1 500 46 176 123 352 193 438 24 30 43 58 43 63 0 5 32 41 70 81 39 40 83
86 98 102 31 33 69 58 167 111 61 32 84 51 125 102 17 21 32 112 27 161 -3 26
-17 110 -31 187 -14 77 -30 172 -35 210 -13 103 -14 292 -1 387 5 46 15 121
21 168 11 88 18 121 43 205 26 84 84 246 94 258 5 7 17 32 26 56 9 25 32 67
50 95 18 28 39 66 46 84 7 17 16 32 20 32 5 0 16 13 27 29 89 143 178 241 353
391 114 98 262 194 364 237 34 14 81 34 106 46 25 11 73 33 108 48 l62 28 0
-68 c0 -54 5 -75 23 -101 29 -43 48 -54 80 -46 42 10 67 65 82 179 16 117 24
149 57 232 14 33 28 74 32 90 4 17 23 63 42 104 20 41 40 84 45 95 41 88 154
265 176 273 7 3 13 9 13 13 0 13 179 189 247 243 33 27 73 55 89 63 16 9 38
24 49 34 40 37 322 179 357 180 7 1 31 9 53 20 22 11 48 19 58 20 10 0 28 5
39 11 43 23 309 63 503 75 55 3 126 12 157 20 32 8 102 17 155 21 111 7 126
14 233 108 36 31 90 68 120 82 30 13 105 49 165 78 168 82 298 122 435 133
163 13 289 14 351 2z"/>
<path d="M3614 7642 c-53 -82 -106 -225 -173 -467 -10 -38 -26 -95 -35 -125
-23 -82 -53 -268 -66 -415 -6 -71 -17 -152 -23 -180 -6 -28 -12 -134 -12 -240
0 -158 3 -198 18 -239 27 -74 35 -85 75 -101 77 -33 149 8 192 110 12 28 25
59 30 70 26 64 87 449 91 585 1 19 7 67 14 105 7 39 16 108 20 155 4 47 13
114 21 149 9 36 15 103 16 150 0 47 6 124 14 171 7 47 14 117 14 155 0 91 -20
126 -86 149 -68 23 -76 21 -110 -32z"/>
<path d="M4650 5894 c-127 -27 -219 -83 -337 -204 -25 -27 -113 -142 -113
-150 0 -4 -13 -24 -29 -44 -16 -20 -32 -52 -36 -72 -3 -21 -13 -47 -21 -59
-40 -61 -88 -321 -82 -442 7 -139 66 -223 157 -223 53 0 88 18 134 69 54 59
71 100 112 266 48 193 76 267 126 331 58 76 96 95 185 96 39 0 82 -6 95 -12
77 -40 162 -138 192 -220 36 -101 57 -192 63 -266 8 -93 47 -187 91 -220 43
-32 100 -38 159 -19 57 20 84 47 120 124 48 101 35 310 -31 506 -28 82 -46
120 -100 198 -22 32 -44 66 -50 75 -21 33 -142 144 -185 169 -25 15 -52 32
-60 39 -23 19 -117 51 -184 63 -76 14 -125 13 -206 -5z"/>
<path d="M2410 5823 c-14 -2 -52 -14 -85 -25 -195 -67 -352 -225 -472 -478
-53 -112 -69 -159 -88 -271 -38 -218 32 -339 177 -308 64 14 112 58 148 137
42 90 44 94 80 192 69 184 131 271 221 309 80 35 169 9 248 -73 79 -81 103
-186 107 -473 3 -237 5 -245 73 -306 37 -33 47 -37 94 -37 80 0 131 31 177
108 23 38 43 87 51 129 19 94 16 373 -5 481 -59 307 -273 555 -526 612 -45 9
-152 11 -200 3z"/>
<path d="M5170 4110 c-41 -10 -101 -74 -154 -165 -43 -72 -50 -82 -101 -151
-22 -30 -53 -75 -70 -101 -72 -116 -373 -421 -516 -525 -20 -14 -40 -31 -43
-37 -8 -13 -146 -93 -318 -185 -25 -14 -102 -41 -170 -60 -268 -74 -344 -85
-513 -75 -158 9 -177 12 -345 66 -102 33 -161 63 -244 125 -80 60 -276 252
-276 271 0 7 -13 28 -28 47 -16 19 -44 64 -64 100 -19 36 -49 89 -66 118 -18
29 -32 58 -32 63 0 20 -108 235 -139 277 -65 88 -135 104 -227 51 -33 -18 -66
-48 -85 -75 -27 -40 -32 -58 -40 -147 -10 -114 -7 -144 28 -301 35 -157 156
-424 230 -507 29 -33 53 -64 53 -69 0 -19 183 -210 226 -235 24 -14 52 -34 62
-44 55 -55 180 -121 331 -172 64 -22 125 -46 136 -53 33 -21 291 -56 409 -56
140 0 429 29 486 49 30 11 96 31 145 46 147 45 287 95 330 120 22 12 83 45
135 72 140 74 214 121 330 213 129 102 278 249 365 360 46 59 46 58 78 108 15
23 31 42 36 42 4 0 16 19 27 43 10 23 41 83 70 132 82 146 145 338 148 455 1
73 -27 160 -60 184 -30 21 -85 28 -134 16z"/>
<path d="M10080 80 l0 -80 80 0 80 0 0 80 0 80 -80 0 -80 0 0 -80z"/>
</g>
</svg>
